<?xml version="1.0" encoding="UTF-8" standalone="no"?>
<!DOCTYPE svg PUBLIC "-//W3C//DTD SVG 1.1//EN"
 "http://www.w3.org/Graphics/SVG/1.1/DTD/svg11.dtd">
<!-- Generated by graphviz version 2.38.0 (20140413.2041)
 -->
<!-- Title: romeo Pages: 1 -->
<svg width="2486pt" height="2492pt"
 viewBox="0.00 0.00 2485.87 2492.00" xmlns="http://www.w3.org/2000/svg" xmlns:xlink="http://www.w3.org/1999/xlink">
<g id="graph0" class="graph" transform="scale(1 1) rotate(0) translate(4 2488)">
<title>romeo</title>
<polygon fill="white" stroke="none" points="-4,4 -4,-2488 2481.87,-2488 2481.87,4 -4,4"/>
<!-- 1 -->
<g id="node1" class="node"><title>1</title>
<polygon fill="none" stroke="black" stroke-width="2" points="1579.13,-2412 1414.13,-2412 1414.13,-2376 1579.13,-2376 1579.13,-2412"/>
<text text-anchor="middle" x="1496.63" y="-2390.3" font-family="Times,serif" font-size="14.00">Page 1 &#45; Book Introduction</text>
</g>
<!-- 3 -->
<g id="node3" class="node"><title>3</title>
<polygon fill="none" stroke="black" stroke-width="2" points="1626.13,-2340 1367.13,-2340 1367.13,-2304 1626.13,-2304 1626.13,-2340"/>
<text text-anchor="middle" x="1496.63" y="-2318.3" font-family="Times,serif" font-size="14.00">Page 3 &#45; Shakespearean Intro Plot Summary</text>
</g>
<!-- 1&#45;&gt;3 -->
<g id="edge1" class="edge"><title>1&#45;&gt;3</title>
<path fill="none" stroke="black" d="M1496.63,-2375.7C1496.63,-2367.98 1496.63,-2358.71 1496.63,-2350.11"/>
<polygon fill="black" stroke="black" points="1500.13,-2350.1 1496.63,-2340.1 1493.13,-2350.1 1500.13,-2350.1"/>
</g>
<!-- 22 -->
<g id="node18" class="node"><title>22</title>
<ellipse fill="none" stroke="black" cx="1755.63" cy="-2322" rx="111.28" ry="18"/>
<text text-anchor="middle" x="1755.63" y="-2318.3" font-family="Times,serif" font-size="14.00">Page 22 &#45; Author Biography</text>
</g>
<!-- 1&#45;&gt;22 -->
<g id="edge2" class="edge"><title>1&#45;&gt;22</title>
<path fill="none" stroke="black" d="M1559.66,-2375.97C1599.64,-2365.16 1651.21,-2351.22 1691.42,-2340.36"/>
<polygon fill="black" stroke="black" points="1692.38,-2343.72 1701.12,-2337.73 1690.55,-2336.96 1692.38,-2343.72"/>
</g>
<!-- 36 -->
<g id="node21" class="node"><title>36</title>
<polygon fill="none" stroke="black" stroke-width="2" points="1600.13,-2196 1431.13,-2196 1431.13,-2160 1600.13,-2160 1600.13,-2196"/>
<text text-anchor="middle" x="1515.63" y="-2174.3" font-family="Times,serif" font-size="14.00">Page 36 &#45; Choose Character</text>
</g>
<!-- 1&#45;&gt;36 -->
<g id="edge3" class="edge"><title>1&#45;&gt;36</title>
<path fill="none" stroke="black" d="M1414.09,-2379.32C1392.15,-2371.51 1370.89,-2359.25 1357.63,-2340 1348.56,-2326.82 1350.7,-2318.42 1357.63,-2304 1380.5,-2256.43 1431.31,-2221.51 1469.17,-2200.85"/>
<polygon fill="black" stroke="black" points="1470.82,-2203.94 1478.01,-2196.16 1467.53,-2197.76 1470.82,-2203.94"/>
</g>
<!-- 2 -->
<g id="node2" class="node"><title>2</title>
<ellipse fill="none" stroke="black" cx="1496.63" cy="-2466" rx="207.963" ry="18"/>
<text text-anchor="middle" x="1496.63" y="-2462.3" font-family="Times,serif" font-size="14.00">Page 2 &#45; Reprimand for trying to read the book in order</text>
</g>
<!-- 2&#45;&gt;1 -->
<g id="edge4" class="edge"><title>2&#45;&gt;1</title>
<path fill="none" stroke="black" d="M1496.63,-2447.7C1496.63,-2439.98 1496.63,-2430.71 1496.63,-2422.11"/>
<polygon fill="black" stroke="black" points="1500.13,-2422.1 1496.63,-2412.1 1493.13,-2422.1 1500.13,-2422.1"/>
</g>
<!-- 3&#45;&gt;36 -->
<g id="edge5" class="edge"><title>3&#45;&gt;36</title>
<path fill="none" stroke="black" d="M1478.46,-2303.68C1469.75,-2294.1 1460.22,-2281.43 1455.63,-2268 1450.46,-2252.86 1449.06,-2246.59 1455.63,-2232 1460.81,-2220.52 1469.84,-2210.52 1479.35,-2202.4"/>
<polygon fill="black" stroke="black" points="1481.72,-2204.99 1487.37,-2196.03 1477.37,-2199.51 1481.72,-2204.99"/>
</g>
<!-- 4 -->
<g id="node4" class="node"><title>4</title>
<ellipse fill="#ff4040" stroke="black" cx="1381.63" cy="-2106" rx="81.4863" ry="18"/>
<text text-anchor="middle" x="1381.63" y="-2102.3" font-family="Times,serif" font-size="14.00">Page 4 &#45; Juliet Intro</text>
</g>
<!-- 5 -->
<g id="node5" class="node"><title>5</title>
<ellipse fill="#ff4040" stroke="black" cx="1381.63" cy="-1962" rx="118.879" ry="18"/>
<text text-anchor="middle" x="1381.63" y="-1958.3" font-family="Times,serif" font-size="14.00">Page 5 &#45; Drink a protein shake</text>
</g>
<!-- 4&#45;&gt;5 -->
<g id="edge6" class="edge"><title>4&#45;&gt;5</title>
<path fill="none" stroke="black" d="M1381.63,-2087.87C1381.63,-2063.67 1381.63,-2019.21 1381.63,-1990.39"/>
<polygon fill="black" stroke="black" points="1385.13,-1990.19 1381.63,-1980.19 1378.13,-1990.19 1385.13,-1990.19"/>
</g>
<!-- 6 -->
<g id="node6" class="node"><title>6</title>
<ellipse fill="#ff4040" stroke="black" cx="1470.63" cy="-1674" rx="102.882" ry="18"/>
<text text-anchor="middle" x="1470.63" y="-1670.3" font-family="Times,serif" font-size="14.00">Page 6 &#45; Clean your room</text>
</g>
<!-- 5&#45;&gt;6 -->
<g id="edge7" class="edge"><title>5&#45;&gt;6</title>
<path fill="none" stroke="black" d="M1382.11,-1943.79C1383.27,-1914.02 1387.23,-1851.19 1400.63,-1800 1409.42,-1766.46 1413.39,-1758.07 1430.63,-1728 1436.14,-1718.4 1443.14,-1708.55 1449.74,-1699.98"/>
<polygon fill="black" stroke="black" points="1452.68,-1701.91 1456.14,-1691.9 1447.19,-1697.57 1452.68,-1701.91"/>
</g>
<!-- 7 -->
<g id="node7" class="node"><title>7</title>
<ellipse fill="#ff4040" stroke="black" cx="1470.63" cy="-1602" rx="76.8869" ry="18"/>
<text text-anchor="middle" x="1470.63" y="-1598.3" font-family="Times,serif" font-size="14.00">Page 7 &#45; Work out</text>
</g>
<!-- 6&#45;&gt;7 -->
<g id="edge8" class="edge"><title>6&#45;&gt;7</title>
<path fill="none" stroke="black" d="M1470.63,-1655.7C1470.63,-1647.98 1470.63,-1638.71 1470.63,-1630.11"/>
<polygon fill="black" stroke="black" points="1474.13,-1630.1 1470.63,-1620.1 1467.13,-1630.1 1474.13,-1630.1"/>
</g>
<!-- 8 -->
<g id="node8" class="node"><title>8</title>
<polygon fill="#ff4040" stroke="black" stroke-width="2" points="1719.13,-1548 1502.13,-1548 1502.13,-1512 1719.13,-1512 1719.13,-1548"/>
<text text-anchor="middle" x="1610.63" y="-1526.3" font-family="Times,serif" font-size="14.00">Page 8 &#45; Talk with mother and nurse</text>
</g>
<!-- 7&#45;&gt;8 -->
<g id="edge9" class="edge"><title>7&#45;&gt;8</title>
<path fill="none" stroke="black" d="M1501.7,-1585.46C1520.93,-1575.85 1545.9,-1563.36 1567.09,-1552.77"/>
<polygon fill="black" stroke="black" points="1568.83,-1555.81 1576.21,-1548.21 1565.7,-1549.55 1568.83,-1555.81"/>
</g>
<!-- 9 -->
<g id="node9" class="node"><title>9</title>
<polygon fill="#ff4040" stroke="black" stroke-width="2" points="1765.13,-1476 1456.13,-1476 1456.13,-1440 1765.13,-1440 1765.13,-1476"/>
<text text-anchor="middle" x="1610.63" y="-1454.3" font-family="Times,serif" font-size="14.00">Page 9 &#45; Angelica provides much useless information</text>
</g>
<!-- 8&#45;&gt;9 -->
<g id="edge10" class="edge"><title>8&#45;&gt;9</title>
<path fill="none" stroke="black" d="M1610.63,-1511.7C1610.63,-1503.98 1610.63,-1494.71 1610.63,-1486.11"/>
<polygon fill="black" stroke="black" points="1614.13,-1486.1 1610.63,-1476.1 1607.13,-1486.1 1614.13,-1486.1"/>
</g>
<!-- 10 -->
<g id="node10" class="node"><title>10</title>
<polygon fill="#ff4040" stroke="black" stroke-width="2" points="1747.63,-1332 1473.63,-1332 1473.63,-1296 1747.63,-1296 1747.63,-1332"/>
<text text-anchor="middle" x="1610.63" y="-1310.3" font-family="Times,serif" font-size="14.00">Page 10 &#45; Learn of plans for arranged marriage</text>
</g>
<!-- 9&#45;&gt;10 -->
<g id="edge11" class="edge"><title>9&#45;&gt;10</title>
<path fill="none" stroke="black" d="M1569.95,-1439.88C1555.12,-1431.41 1539.95,-1419.59 1531.63,-1404 1524.1,-1389.88 1524.1,-1382.12 1531.63,-1368 1538.33,-1355.45 1549.45,-1345.35 1561.27,-1337.47"/>
<polygon fill="black" stroke="black" points="1563.28,-1340.34 1569.95,-1332.12 1559.6,-1334.39 1563.28,-1340.34"/>
</g>
<!-- 418 -->
<g id="node42" class="node"><title>418</title>
<ellipse fill="#ff4040" stroke="black" cx="1708.63" cy="-1386" rx="168.17" ry="18"/>
<text text-anchor="middle" x="1708.63" y="-1382.3" font-family="Times,serif" font-size="14.00">Page 418 &#45; Rooster Testicle size explanation</text>
</g>
<!-- 9&#45;&gt;418 -->
<g id="edge12" class="edge"><title>9&#45;&gt;418</title>
<path fill="none" stroke="black" d="M1634.61,-1439.88C1647.28,-1430.83 1663,-1419.6 1676.69,-1409.82"/>
<polygon fill="black" stroke="black" points="1678.8,-1412.61 1684.91,-1403.95 1674.74,-1406.91 1678.8,-1412.61"/>
</g>
<!-- 11 -->
<g id="node11" class="node"><title>11</title>
<polygon fill="#ff4040" stroke="black" stroke-width="2" points="1655.63,-1260 1419.63,-1260 1419.63,-1224 1655.63,-1224 1655.63,-1260"/>
<text text-anchor="middle" x="1537.63" y="-1238.3" font-family="Times,serif" font-size="14.00">Page 11 &#45; Tom Paris is to be your suitor</text>
</g>
<!-- 10&#45;&gt;11 -->
<g id="edge13" class="edge"><title>10&#45;&gt;11</title>
<path fill="none" stroke="black" d="M1592.59,-1295.7C1583.57,-1287.05 1572.52,-1276.45 1562.69,-1267.03"/>
<polygon fill="black" stroke="black" points="1565.11,-1264.5 1555.47,-1260.1 1560.27,-1269.55 1565.11,-1264.5"/>
</g>
<!-- 25 -->
<g id="node51" class="node"><title>25</title>
<ellipse fill="none" stroke="black" cx="1683.63" cy="-1170" rx="129.177" ry="18"/>
<text text-anchor="start" x="1592.13" y="-1167.3" font-family="Times,serif" font-style="italic" font-size="14.00">(Page 25 &#45; Run away from home)</text>
</g>
<!-- 10&#45;&gt;25 -->
<g id="edge14" class="edge"><title>10&#45;&gt;25</title>
<path fill="none" stroke="black" d="M1633.46,-1295.95C1644.5,-1286.53 1656.98,-1273.93 1664.63,-1260 1675.13,-1240.9 1679.83,-1216.55 1681.94,-1198.14"/>
<polygon fill="black" stroke="black" points="1685.43,-1198.37 1682.9,-1188.08 1678.46,-1197.7 1685.43,-1198.37"/>
</g>
<!-- 12 -->
<g id="node12" class="node"><title>12</title>
<polygon fill="#ff4040" stroke="black" stroke-width="2" points="1536.13,-1188 1279.13,-1188 1279.13,-1152 1536.13,-1152 1536.13,-1188"/>
<text text-anchor="middle" x="1407.63" y="-1166.3" font-family="Times,serif" font-size="14.00">Page 12 &#45; More salesmanship re: Tom Paris</text>
</g>
<!-- 11&#45;&gt;12 -->
<g id="edge15" class="edge"><title>11&#45;&gt;12</title>
<path fill="none" stroke="black" d="M1505.83,-1223.88C1488.52,-1214.55 1466.91,-1202.92 1448.38,-1192.94"/>
<polygon fill="black" stroke="black" points="1450.02,-1189.85 1439.56,-1188.19 1446.7,-1196.01 1450.02,-1189.85"/>
</g>
<!-- 11&#45;&gt;25 -->
<g id="edge16" class="edge"><title>11&#45;&gt;25</title>
<path fill="none" stroke="black" d="M1573.35,-1223.88C1593.5,-1214.22 1618.83,-1202.07 1640.13,-1191.86"/>
<polygon fill="black" stroke="black" points="1641.79,-1194.94 1649.29,-1187.47 1638.76,-1188.63 1641.79,-1194.94"/>
</g>
<!-- 13 -->
<g id="node13" class="node"><title>13</title>
<polygon fill="#ff4040" stroke="black" stroke-width="2" points="1393.63,-1116 1135.63,-1116 1135.63,-1080 1393.63,-1080 1393.63,-1116"/>
<text text-anchor="middle" x="1264.63" y="-1094.3" font-family="Times,serif" font-size="14.00">Page 13 &#45; The Capulet party is about to start</text>
</g>
<!-- 12&#45;&gt;13 -->
<g id="edge17" class="edge"><title>12&#45;&gt;13</title>
<path fill="none" stroke="black" d="M1372.65,-1151.88C1353.44,-1142.47 1329.41,-1130.71 1308.9,-1120.67"/>
<polygon fill="black" stroke="black" points="1310.27,-1117.44 1299.75,-1116.19 1307.19,-1123.73 1310.27,-1117.44"/>
</g>
<!-- 44 -->
<g id="node62" class="node"><title>44</title>
<ellipse fill="none" stroke="black" cx="1551.63" cy="-1098" rx="139.976" ry="18"/>
<text text-anchor="start" x="1452.13" y="-1095.3" font-family="Times,serif" font-style="italic" font-size="14.00">(Page 44 &#45; Say &quot;No Mom&quot; for once)</text>
</g>
<!-- 12&#45;&gt;44 -->
<g id="edge18" class="edge"><title>12&#45;&gt;44</title>
<path fill="none" stroke="black" d="M1442.86,-1151.88C1462.73,-1142.22 1487.72,-1130.07 1508.73,-1119.86"/>
<polygon fill="black" stroke="black" points="1510.3,-1122.98 1517.76,-1115.47 1507.24,-1116.69 1510.3,-1122.98"/>
</g>
<!-- 51 -->
<g id="node24" class="node"><title>51</title>
<polygon fill="#98f5ff" stroke="black" stroke-width="2" points="1398.13,-1044 1131.13,-1044 1131.13,-1008 1398.13,-1008 1398.13,-1044"/>
<text text-anchor="middle" x="1264.63" y="-1022.3" font-family="Times,serif" font-size="14.00">Page 51 &#45; Walking to the party with Mercutio</text>
</g>
<!-- 13&#45;&gt;51 -->
<g id="edge19" class="edge"><title>13&#45;&gt;51</title>
<path fill="none" stroke="black" d="M1264.63,-1079.7C1264.63,-1071.98 1264.63,-1062.71 1264.63,-1054.11"/>
<polygon fill="black" stroke="black" points="1268.13,-1054.1 1264.63,-1044.1 1261.13,-1054.1 1268.13,-1054.1"/>
</g>
<!-- 14 -->
<g id="node14" class="node"><title>14</title>
<polygon fill="#98f5ff" stroke="black" stroke-width="2" points="1977.63,-2052 1737.63,-2052 1737.63,-2016 1977.63,-2016 1977.63,-2052"/>
<text text-anchor="middle" x="1857.63" y="-2030.3" font-family="Times,serif" font-size="14.00">Page 14 &#45; Musings on love and breakfast</text>
</g>
<!-- 28 -->
<g id="node20" class="node"><title>28</title>
<polygon fill="#98f5ff" stroke="black" stroke-width="2" points="2176.13,-1980 1897.13,-1980 1897.13,-1944 2176.13,-1944 2176.13,-1980"/>
<text text-anchor="middle" x="2036.63" y="-1958.3" font-family="Times,serif" font-size="14.00">Page 28 &#45; Notice Benvolio&#39;s vest and face&#45;blood</text>
</g>
<!-- 14&#45;&gt;28 -->
<g id="edge21" class="edge"><title>14&#45;&gt;28</title>
<path fill="none" stroke="black" d="M1901.42,-2015.88C1926.22,-2006.18 1957.41,-1993.98 1983.59,-1983.74"/>
<polygon fill="black" stroke="black" points="1984.95,-1986.97 1992.99,-1980.07 1982.4,-1980.45 1984.95,-1986.97"/>
</g>
<!-- 20 -->
<g id="node47" class="node"><title>20</title>
<ellipse fill="none" stroke="black" cx="1729.63" cy="-1962" rx="149.473" ry="18"/>
<text text-anchor="start" x="1622.63" y="-1959.3" font-family="Times,serif" font-style="italic" font-size="14.00">(Page 20 &#45; Talk about love some more)</text>
</g>
<!-- 14&#45;&gt;20 -->
<g id="edge20" class="edge"><title>14&#45;&gt;20</title>
<path fill="none" stroke="black" d="M1826.32,-2015.88C1809.1,-2006.46 1787.56,-1994.68 1769.19,-1984.63"/>
<polygon fill="black" stroke="black" points="1770.63,-1981.43 1760.18,-1979.71 1767.28,-1987.57 1770.63,-1981.43"/>
</g>
<!-- 15 -->
<g id="node15" class="node"><title>15</title>
<ellipse fill="none" stroke="black" cx="1594.63" cy="-2250" rx="129.977" ry="18"/>
<text text-anchor="middle" x="1594.63" y="-2246.3" font-family="Times,serif" font-size="14.00">Page 15 &#45; Shakespeare Biography</text>
</g>
<!-- 15&#45;&gt;36 -->
<g id="edge22" class="edge"><title>15&#45;&gt;36</title>
<path fill="none" stroke="black" d="M1575.51,-2232.05C1565.59,-2223.26 1553.31,-2212.38 1542.45,-2202.76"/>
<polygon fill="black" stroke="black" points="1544.66,-2200.04 1534.86,-2196.03 1540.02,-2205.28 1544.66,-2200.04"/>
</g>
<!-- 18 -->
<g id="node16" class="node"><title>18</title>
<polygon fill="#98f5ff" stroke="black" stroke-width="2" points="2028.13,-1836 1741.13,-1836 1741.13,-1800 2028.13,-1800 2028.13,-1836"/>
<text text-anchor="middle" x="1884.63" y="-1814.3" font-family="Times,serif" font-size="14.00">Page 18 &#45; Shakespearean dialogue about Rosaline</text>
</g>
<!-- 52 -->
<g id="node25" class="node"><title>52</title>
<polygon fill="#98f5ff" stroke="black" stroke-width="2" points="2047.63,-1764 1721.63,-1764 1721.63,-1728 2047.63,-1728 2047.63,-1764"/>
<text text-anchor="middle" x="1884.63" y="-1742.3" font-family="Times,serif" font-size="14.00">Page 52 &#45; Benvolio wants to lecture you on relationships</text>
</g>
<!-- 18&#45;&gt;52 -->
<g id="edge24" class="edge"><title>18&#45;&gt;52</title>
<path fill="none" stroke="black" d="M1884.63,-1799.7C1884.63,-1791.98 1884.63,-1782.71 1884.63,-1774.11"/>
<polygon fill="black" stroke="black" points="1888.13,-1774.1 1884.63,-1764.1 1881.13,-1774.1 1888.13,-1774.1"/>
</g>
<!-- 39 -->
<g id="node59" class="node"><title>39</title>
<ellipse fill="none" stroke="black" cx="1571.63" cy="-1746" rx="131.877" ry="18"/>
<text text-anchor="start" x="1478.13" y="-1743.3" font-family="Times,serif" font-style="italic" font-size="14.00">(Page 39 &#45; Try to forget Rosaline)</text>
</g>
<!-- 18&#45;&gt;39 -->
<g id="edge23" class="edge"><title>18&#45;&gt;39</title>
<path fill="none" stroke="black" d="M1808.47,-1799.97C1759.46,-1789 1696.03,-1774.82 1647.14,-1763.89"/>
<polygon fill="black" stroke="black" points="1647.78,-1760.44 1637.26,-1761.68 1646.25,-1767.27 1647.78,-1760.44"/>
</g>
<!-- 19 -->
<g id="node17" class="node"><title>19</title>
<polygon fill="#98f5ff" stroke="black" stroke-width="2" points="2090.13,-1692 1679.13,-1692 1679.13,-1656 2090.13,-1656 2090.13,-1692"/>
<text text-anchor="middle" x="1884.63" y="-1670.3" font-family="Times,serif" font-size="14.00">Page 19 &#45; Benvolio lectures and a man approaches with a piece of paper</text>
</g>
<!-- 50 -->
<g id="node23" class="node"><title>50</title>
<polygon fill="#98f5ff" stroke="black" stroke-width="2" points="2097.63,-1620 1873.63,-1620 1873.63,-1584 2097.63,-1584 2097.63,-1620"/>
<text text-anchor="middle" x="1985.63" y="-1598.3" font-family="Times,serif" font-size="14.00">Page 50 &#45; Learn of the Capulet&#39;s party</text>
</g>
<!-- 19&#45;&gt;50 -->
<g id="edge26" class="edge"><title>19&#45;&gt;50</title>
<path fill="none" stroke="black" d="M1909.34,-1655.88C1922.3,-1646.89 1938.36,-1635.76 1952.4,-1626.03"/>
<polygon fill="black" stroke="black" points="1954.61,-1628.76 1960.83,-1620.19 1950.62,-1623.01 1954.61,-1628.76"/>
</g>
<!-- 37 -->
<g id="node57" class="node"><title>37</title>
<ellipse fill="none" stroke="black" cx="1710.63" cy="-1602" rx="144.874" ry="18"/>
<text text-anchor="start" x="1607.13" y="-1599.3" font-family="Times,serif" font-style="italic" font-size="14.00">(Page 37 &#45; Tell him you are illiterate)</text>
</g>
<!-- 19&#45;&gt;37 -->
<g id="edge25" class="edge"><title>19&#45;&gt;37</title>
<path fill="none" stroke="black" d="M1842.07,-1655.88C1817.54,-1646.01 1786.56,-1633.54 1760.84,-1623.2"/>
<polygon fill="black" stroke="black" points="1761.85,-1619.83 1751.26,-1619.35 1759.23,-1626.32 1761.85,-1619.83"/>
</g>
<!-- 22&#45;&gt;15 -->
<g id="edge27" class="edge"><title>22&#45;&gt;15</title>
<path fill="none" stroke="black" d="M1718.7,-2304.94C1695.83,-2295 1666.25,-2282.14 1641.71,-2271.47"/>
<polygon fill="black" stroke="black" points="1642.8,-2268.13 1632.24,-2267.35 1640.01,-2274.55 1642.8,-2268.13"/>
</g>
<!-- 475 -->
<g id="node43" class="node"><title>475</title>
<ellipse fill="none" stroke="black" cx="1839.63" cy="-2250" rx="96.6831" ry="18"/>
<text text-anchor="middle" x="1839.63" y="-2246.3" font-family="Times,serif" font-size="14.00">Page 475 &#45; Artist credits</text>
</g>
<!-- 22&#45;&gt;475 -->
<g id="edge28" class="edge"><title>22&#45;&gt;475</title>
<path fill="none" stroke="black" d="M1775.97,-2304.05C1786.7,-2295.11 1800.03,-2284.01 1811.71,-2274.27"/>
<polygon fill="black" stroke="black" points="1814.05,-2276.88 1819.49,-2267.79 1809.56,-2271.5 1814.05,-2276.88"/>
</g>
<!-- 27 -->
<g id="node19" class="node"><title>27</title>
<polygon fill="#98f5ff" stroke="black" stroke-width="2" points="1818.13,-2124 1481.13,-2124 1481.13,-2088 1818.13,-2088 1818.13,-2124"/>
<text text-anchor="middle" x="1649.63" y="-2102.3" font-family="Times,serif" font-size="14.00">Page 27 &#45; You are Romeo, and hear Benvolio approaching</text>
</g>
<!-- 27&#45;&gt;14 -->
<g id="edge29" class="edge"><title>27&#45;&gt;14</title>
<path fill="none" stroke="black" d="M1700.25,-2087.97C1729.44,-2078.14 1766.32,-2065.73 1797.05,-2055.39"/>
<polygon fill="black" stroke="black" points="1798.43,-2058.62 1806.79,-2052.11 1796.2,-2051.98 1798.43,-2058.62"/>
</g>
<!-- 21 -->
<g id="node48" class="node"><title>21</title>
<ellipse fill="none" stroke="black" cx="1592.63" cy="-2034" rx="126.978" ry="18"/>
<text text-anchor="start" x="1503.13" y="-2031.3" font-family="Times,serif" font-style="italic" font-size="14.00">(Page 21 &#45; Hide in garbage can)</text>
</g>
<!-- 27&#45;&gt;21 -->
<g id="edge30" class="edge"><title>27&#45;&gt;21</title>
<path fill="none" stroke="black" d="M1635.54,-2087.7C1628.71,-2079.3 1620.38,-2069.07 1612.88,-2059.86"/>
<polygon fill="black" stroke="black" points="1615.59,-2057.65 1606.56,-2052.1 1610.16,-2062.07 1615.59,-2057.65"/>
</g>
<!-- 48 -->
<g id="node22" class="node"><title>48</title>
<polygon fill="#98f5ff" stroke="black" stroke-width="2" points="1914.13,-1908 1729.13,-1908 1729.13,-1872 1914.13,-1872 1914.13,-1908"/>
<text text-anchor="middle" x="1821.63" y="-1886.3" font-family="Times,serif" font-size="14.00">Page 48 &#45; Talk about love a lot</text>
</g>
<!-- 28&#45;&gt;48 -->
<g id="edge33" class="edge"><title>28&#45;&gt;48</title>
<path fill="none" stroke="black" d="M1984.31,-1943.97C1954.01,-1934.1 1915.69,-1921.62 1883.85,-1911.25"/>
<polygon fill="black" stroke="black" points="1884.78,-1907.88 1874.19,-1908.11 1882.61,-1914.53 1884.78,-1907.88"/>
</g>
<!-- 17 -->
<g id="node46" class="node"><title>17</title>
<ellipse fill="none" stroke="black" cx="2036.63" cy="-1890" rx="104.782" ry="18"/>
<text text-anchor="start" x="1964.13" y="-1887.3" font-family="Times,serif" font-style="italic" font-size="14.00">(Page 17 &#45; Ask about vest)</text>
</g>
<!-- 28&#45;&gt;17 -->
<g id="edge31" class="edge"><title>28&#45;&gt;17</title>
<path fill="none" stroke="black" d="M2036.63,-1943.7C2036.63,-1935.98 2036.63,-1926.71 2036.63,-1918.11"/>
<polygon fill="black" stroke="black" points="2040.13,-1918.1 2036.63,-1908.1 2033.13,-1918.1 2040.13,-1918.1"/>
</g>
<!-- 38 -->
<g id="node58" class="node"><title>38</title>
<ellipse fill="none" stroke="black" cx="2318.63" cy="-1890" rx="159.472" ry="18"/>
<text text-anchor="start" x="2204.13" y="-1887.3" font-family="Times,serif" font-style="italic" font-size="14.00">(Page 38 &#45; Ask about face over breakfast)</text>
</g>
<!-- 28&#45;&gt;38 -->
<g id="edge32" class="edge"><title>28&#45;&gt;38</title>
<path fill="none" stroke="black" d="M2105.26,-1943.97C2147.91,-1933.38 2202.69,-1919.78 2246.06,-1909.01"/>
<polygon fill="black" stroke="black" points="2247.11,-1912.36 2255.98,-1906.55 2245.43,-1905.57 2247.11,-1912.36"/>
</g>
<!-- 36&#45;&gt;4 -->
<g id="edge34" class="edge"><title>36&#45;&gt;4</title>
<path fill="none" stroke="black" d="M1482.85,-2159.88C1464.12,-2150.09 1440.52,-2137.76 1420.82,-2127.47"/>
<polygon fill="black" stroke="black" points="1422.27,-2124.28 1411.78,-2122.75 1419.03,-2130.48 1422.27,-2124.28"/>
</g>
<!-- 36&#45;&gt;27 -->
<g id="edge35" class="edge"><title>36&#45;&gt;27</title>
<path fill="none" stroke="black" d="M1548.41,-2159.88C1566.26,-2150.55 1588.53,-2138.92 1607.64,-2128.94"/>
<polygon fill="black" stroke="black" points="1609.48,-2131.92 1616.73,-2124.19 1606.24,-2125.72 1609.48,-2131.92"/>
</g>
<!-- 48&#45;&gt;18 -->
<g id="edge36" class="edge"><title>48&#45;&gt;18</title>
<path fill="none" stroke="black" d="M1837.21,-1871.7C1844.84,-1863.22 1854.16,-1852.86 1862.51,-1843.58"/>
<polygon fill="black" stroke="black" points="1865.15,-1845.88 1869.24,-1836.1 1859.95,-1841.2 1865.15,-1845.88"/>
</g>
<!-- 29 -->
<g id="node63" class="node"><title>29</title>
<ellipse fill="none" stroke="black" cx="1566.63" cy="-1818" rx="156.772" ry="18"/>
<text text-anchor="start" x="1454.13" y="-1815.3" font-family="Times,serif" font-style="italic" font-size="14.00">(Page 29 &#45; Tell Benvolio about Rosaline)</text>
</g>
<!-- 48&#45;&gt;29 -->
<g id="edge37" class="edge"><title>48&#45;&gt;29</title>
<path fill="none" stroke="black" d="M1759.58,-1871.97C1721.53,-1861.52 1672.8,-1848.14 1633.84,-1837.45"/>
<polygon fill="black" stroke="black" points="1634.72,-1834.06 1624.15,-1834.79 1632.87,-1840.81 1634.72,-1834.06"/>
</g>
<!-- 50&#45;&gt;8 -->
<g id="edge38" class="edge"><title>50&#45;&gt;8</title>
<path fill="none" stroke="black" d="M1894.38,-1583.97C1839.26,-1573.68 1768.92,-1560.55 1712.06,-1549.93"/>
<polygon fill="black" stroke="black" points="1712.45,-1546.44 1701.97,-1548.05 1711.16,-1553.33 1712.45,-1546.44"/>
</g>
<!-- 34 -->
<g id="node55" class="node"><title>34</title>
<ellipse fill="none" stroke="black" cx="2099.63" cy="-1530" rx="102.882" ry="18"/>
<text text-anchor="start" x="2028.63" y="-1527.3" font-family="Times,serif" font-style="italic" font-size="14.00">(Page 34 &#45; Skip the party)</text>
</g>
<!-- 50&#45;&gt;34 -->
<g id="edge39" class="edge"><title>50&#45;&gt;34</title>
<path fill="none" stroke="black" d="M2013.52,-1583.88C2028.76,-1574.52 2047.79,-1562.83 2064.09,-1552.83"/>
<polygon fill="black" stroke="black" points="2066.13,-1555.68 2072.82,-1547.47 2062.47,-1549.72 2066.13,-1555.68"/>
</g>
<!-- 43 -->
<g id="node61" class="node"><title>43</title>
<ellipse fill="none" stroke="black" cx="1870.63" cy="-1530" rx="107.781" ry="18"/>
<text text-anchor="start" x="1795.63" y="-1527.3" font-family="Times,serif" font-style="italic" font-size="14.00">(Page 43 &#45; Go to the party)</text>
</g>
<!-- 50&#45;&gt;43 -->
<g id="edge40" class="edge"><title>50&#45;&gt;43</title>
<path fill="none" stroke="black" d="M1957.5,-1583.88C1942.13,-1574.52 1922.93,-1562.83 1906.49,-1552.83"/>
<polygon fill="black" stroke="black" points="1908.05,-1549.67 1897.68,-1547.47 1904.41,-1555.65 1908.05,-1549.67"/>
</g>
<!-- 61 -->
<g id="node26" class="node"><title>61</title>
<polygon fill="#98f5ff" stroke="black" stroke-width="2" points="1485.13,-756 1312.13,-756 1312.13,-720 1485.13,-720 1485.13,-756"/>
<text text-anchor="middle" x="1398.63" y="-734.3" font-family="Times,serif" font-size="14.00">Page 61 &#45; Arrive at the party</text>
</g>
<!-- 51&#45;&gt;61 -->
<g id="edge41" class="edge"><title>51&#45;&gt;61</title>
<path fill="none" stroke="black" d="M1232.58,-1007.88C1219.51,-999.055 1205.81,-986.974 1198.63,-972 1177.88,-928.718 1175.36,-905.983 1198.63,-864 1227.42,-812.067 1287.76,-778.861 1334.68,-759.83"/>
<polygon fill="black" stroke="black" points="1336.15,-763.014 1344.17,-756.096 1333.58,-756.5 1336.15,-763.014"/>
</g>
<!-- 73 -->
<g id="node27" class="node"><title>73</title>
<polygon fill="#98f5ff" stroke="black" stroke-width="2" points="1491.63,-972 1207.63,-972 1207.63,-936 1491.63,-936 1491.63,-972"/>
<text text-anchor="middle" x="1349.63" y="-950.3" font-family="Times,serif" font-size="14.00">Page 73 &#45; Learn about Queen Mab (in summary)</text>
</g>
<!-- 51&#45;&gt;73 -->
<g id="edge42" class="edge"><title>51&#45;&gt;73</title>
<path fill="none" stroke="black" d="M1285.65,-1007.7C1296.35,-998.881 1309.52,-988.032 1321.13,-978.474"/>
<polygon fill="black" stroke="black" points="1323.37,-981.163 1328.86,-972.104 1318.92,-975.76 1323.37,-981.163"/>
</g>
<!-- 52&#45;&gt;6 -->
<g id="edge43" class="edge"><title>52&#45;&gt;6</title>
<path fill="none" stroke="black" d="M1783.89,-1727.97C1712.63,-1715.92 1618.33,-1699.97 1551.87,-1688.74"/>
<polygon fill="black" stroke="black" points="1552.31,-1685.26 1541.86,-1687.04 1551.14,-1692.16 1552.31,-1685.26"/>
</g>
<!-- 52&#45;&gt;19 -->
<g id="edge44" class="edge"><title>52&#45;&gt;19</title>
<path fill="none" stroke="black" d="M1884.63,-1727.7C1884.63,-1719.98 1884.63,-1710.71 1884.63,-1702.11"/>
<polygon fill="black" stroke="black" points="1888.13,-1702.1 1884.63,-1692.1 1881.13,-1702.1 1888.13,-1702.1"/>
</g>
<!-- 116 -->
<g id="node34" class="node"><title>116</title>
<polygon fill="#98f5ff" stroke="black" stroke-width="2" points="1268.13,-684 1043.13,-684 1043.13,-648 1268.13,-648 1268.13,-684"/>
<text text-anchor="middle" x="1155.63" y="-662.3" font-family="Times,serif" font-size="14.00">Page 116 &#45; See Juliet for the first time</text>
</g>
<!-- 61&#45;&gt;116 -->
<g id="edge47" class="edge"><title>61&#45;&gt;116</title>
<path fill="none" stroke="black" d="M1339.5,-719.966C1304.96,-710.015 1261.19,-697.406 1225.02,-686.987"/>
<polygon fill="black" stroke="black" points="1225.61,-683.516 1215.03,-684.111 1223.67,-690.242 1225.61,-683.516"/>
</g>
<!-- 80 -->
<g id="node45" class="node"><title>80</title>
<ellipse fill="none" stroke="black" cx="1398.63" cy="-666" rx="112.38" ry="18"/>
<text text-anchor="start" x="1320.13" y="-663.3" font-family="Times,serif" font-style="italic" font-size="14.00">(Page 80 &#45; Look behind you)</text>
</g>
<!-- 61&#45;&gt;80 -->
<g id="edge45" class="edge"><title>61&#45;&gt;80</title>
<path fill="none" stroke="black" d="M1398.63,-719.697C1398.63,-711.983 1398.63,-702.712 1398.63,-694.112"/>
<polygon fill="black" stroke="black" points="1402.13,-694.104 1398.63,-684.104 1395.13,-694.104 1402.13,-694.104"/>
</g>
<!-- 100 -->
<g id="node56" class="node"><title>100</title>
<ellipse fill="none" stroke="black" cx="1640.63" cy="-666" rx="111.581" ry="18"/>
<text text-anchor="start" x="1562.63" y="-663.3" font-family="Times,serif" font-style="italic" font-size="14.00">(Page 100 &#45; Look to the left)</text>
</g>
<!-- 61&#45;&gt;100 -->
<g id="edge46" class="edge"><title>61&#45;&gt;100</title>
<path fill="none" stroke="black" d="M1457.52,-719.966C1494.38,-709.304 1541.79,-695.59 1579.14,-684.789"/>
<polygon fill="black" stroke="black" points="1580.26,-688.108 1588.89,-681.967 1578.31,-681.383 1580.26,-688.108"/>
</g>
<!-- 90 -->
<g id="node28" class="node"><title>90</title>
<ellipse fill="#98f5ff" stroke="black" cx="1598.63" cy="-882" rx="115.88" ry="18"/>
<text text-anchor="middle" x="1598.63" y="-878.3" font-family="Times,serif" font-size="14.00">Page 90 &#45; Almost at the party</text>
</g>
<!-- 73&#45;&gt;90 -->
<g id="edge48" class="edge"><title>73&#45;&gt;90</title>
<path fill="none" stroke="black" d="M1410.23,-935.966C1448.02,-925.341 1496.59,-911.686 1534.95,-900.902"/>
<polygon fill="black" stroke="black" points="1536.3,-904.159 1544.98,-898.084 1534.41,-897.421 1536.3,-904.159"/>
</g>
<!-- 112 -->
<g id="node33" class="node"><title>112</title>
<polygon fill="#98f5ff" stroke="black" stroke-width="2" points="1465.13,-900 1208.13,-900 1208.13,-864 1465.13,-864 1465.13,-900"/>
<text text-anchor="middle" x="1336.63" y="-878.3" font-family="Times,serif" font-size="14.00">Page 112 &#45; Listen to Mercutio&#39;s long speech</text>
</g>
<!-- 73&#45;&gt;112 -->
<g id="edge49" class="edge"><title>73&#45;&gt;112</title>
<path fill="none" stroke="black" d="M1346.42,-935.697C1344.99,-927.983 1343.27,-918.712 1341.67,-910.112"/>
<polygon fill="black" stroke="black" points="1345.08,-909.297 1339.81,-900.104 1338.2,-910.575 1345.08,-909.297"/>
</g>
<!-- 90&#45;&gt;61 -->
<g id="edge50" class="edge"><title>90&#45;&gt;61</title>
<path fill="none" stroke="black" d="M1599.61,-863.917C1599.79,-844.063 1596.93,-811.533 1578.63,-792 1556.93,-768.831 1525.67,-755.621 1495.27,-748.146"/>
<polygon fill="black" stroke="black" points="1495.97,-744.716 1485.44,-745.915 1494.42,-751.542 1495.97,-744.716"/>
</g>
<!-- 99 -->
<g id="node30" class="node"><title>99</title>
<polygon fill="#98f5ff" stroke="black" stroke-width="2" points="1570.13,-828 1361.13,-828 1361.13,-792 1570.13,-792 1570.13,-828"/>
<text text-anchor="middle" x="1465.63" y="-806.3" font-family="Times,serif" font-size="14.00">Page 99 &#45; Predict your own demise</text>
</g>
<!-- 90&#45;&gt;99 -->
<g id="edge51" class="edge"><title>90&#45;&gt;99</title>
<path fill="none" stroke="black" d="M1567.45,-864.588C1549.42,-855.099 1526.52,-843.043 1507,-832.77"/>
<polygon fill="black" stroke="black" points="1508.49,-829.6 1498.01,-828.04 1505.23,-835.795 1508.49,-829.6"/>
</g>
<!-- 96 -->
<g id="node29" class="node"><title>96</title>
<polygon fill="#98f5ff" stroke="black" stroke-width="2" points="1157.13,-612 874.134,-612 874.134,-576 1157.13,-576 1157.13,-612"/>
<text text-anchor="middle" x="1015.63" y="-590.3" font-family="Times,serif" font-size="14.00">Page 96 &#45; Initial conversation gets serious quick!</text>
</g>
<!-- 111 -->
<g id="node32" class="node"><title>111</title>
<polygon fill="#98f5ff" stroke="black" stroke-width="2" points="993.134,-540 868.134,-540 868.134,-504 993.134,-504 993.134,-540"/>
<text text-anchor="middle" x="930.634" y="-518.3" font-family="Times,serif" font-size="14.00">Page 111 &#45; Kissing!</text>
</g>
<!-- 96&#45;&gt;111 -->
<g id="edge53" class="edge"><title>96&#45;&gt;111</title>
<path fill="none" stroke="black" d="M994.623,-575.697C983.918,-566.881 970.744,-556.032 959.138,-546.474"/>
<polygon fill="black" stroke="black" points="961.348,-543.76 951.403,-540.104 956.898,-549.163 961.348,-543.76"/>
</g>
<!-- 85 -->
<g id="node67" class="node"><title>85</title>
<ellipse fill="none" stroke="black" cx="1100.63" cy="-522" rx="89.0842" ry="18"/>
<text text-anchor="start" x="1040.13" y="-519.3" font-family="Times,serif" font-style="italic" font-size="14.00">(Page 85 &#45; Run away)</text>
</g>
<!-- 96&#45;&gt;85 -->
<g id="edge52" class="edge"><title>96&#45;&gt;85</title>
<path fill="none" stroke="black" d="M1036.65,-575.697C1047.51,-566.749 1060.92,-555.708 1072.65,-546.047"/>
<polygon fill="black" stroke="black" points="1074.96,-548.681 1080.45,-539.622 1070.51,-543.278 1074.96,-548.681"/>
</g>
<!-- 99&#45;&gt;61 -->
<g id="edge54" class="edge"><title>99&#45;&gt;61</title>
<path fill="none" stroke="black" d="M1449.07,-791.697C1440.96,-783.22 1431.05,-772.864 1422.16,-763.583"/>
<polygon fill="black" stroke="black" points="1424.45,-760.908 1415.01,-756.104 1419.39,-765.749 1424.45,-760.908"/>
</g>
<!-- 110 -->
<g id="node31" class="node"><title>110</title>
<polygon fill="#98f5ff" stroke="black" stroke-width="2" points="797.634,-252 561.634,-252 561.634,-216 797.634,-216 797.634,-252"/>
<text text-anchor="middle" x="679.634" y="-230.3" font-family="Times,serif" font-size="14.00">Page 110 &#45; Hide in the bushes, basically</text>
</g>
<!-- 142 -->
<g id="node37" class="node"><title>142</title>
<polygon fill="#98f5ff" stroke="black" stroke-width="2" points="972.134,-180 691.134,-180 691.134,-144 972.134,-144 972.134,-180"/>
<text text-anchor="middle" x="831.634" y="-158.3" font-family="Times,serif" font-size="14.00">Page 142 &#45; Listen to Juliet, be discovered by her</text>
</g>
<!-- 110&#45;&gt;142 -->
<g id="edge55" class="edge"><title>110&#45;&gt;142</title>
<path fill="none" stroke="black" d="M716.817,-215.876C737.504,-206.349 763.436,-194.407 785.419,-184.283"/>
<polygon fill="black" stroke="black" points="786.952,-187.43 794.571,-180.068 784.024,-181.072 786.952,-187.43"/>
</g>
<!-- 157 -->
<g id="node54" class="node"><title>157</title>
<ellipse fill="none" stroke="black" cx="528.634" cy="-162" rx="144.874" ry="18"/>
<text text-anchor="start" x="425.134" y="-159.3" font-family="Times,serif" font-style="italic" font-size="14.00">(Page 157 &#45; Wish to be Juliet&#39;s glove)</text>
</g>
<!-- 110&#45;&gt;157 -->
<g id="edge56" class="edge"><title>110&#45;&gt;157</title>
<path fill="none" stroke="black" d="M642.695,-215.876C621.762,-206.172 595.423,-193.962 573.331,-183.721"/>
<polygon fill="black" stroke="black" points="574.696,-180.496 564.151,-179.465 571.752,-186.846 574.696,-180.496"/>
</g>
<!-- 120 -->
<g id="node36" class="node"><title>120</title>
<polygon fill="#98f5ff" stroke="black" stroke-width="2" points="1018.13,-468 843.134,-468 843.134,-432 1018.13,-432 1018.13,-468"/>
<text text-anchor="middle" x="930.634" y="-446.3" font-family="Times,serif" font-size="14.00">Page 120 &#45; (Kiss Illustration)</text>
</g>
<!-- 111&#45;&gt;120 -->
<g id="edge57" class="edge"><title>111&#45;&gt;120</title>
<path fill="none" stroke="black" d="M930.634,-503.697C930.634,-495.983 930.634,-486.712 930.634,-478.112"/>
<polygon fill="black" stroke="black" points="934.134,-478.104 930.634,-468.104 927.134,-478.104 934.134,-478.104"/>
</g>
<!-- 112&#45;&gt;61 -->
<g id="edge58" class="edge"><title>112&#45;&gt;61</title>
<path fill="none" stroke="black" d="M1336.76,-863.76C1337.51,-845.187 1340.54,-815.181 1351.63,-792 1356.59,-781.637 1364.19,-771.781 1371.84,-763.441"/>
<polygon fill="black" stroke="black" points="1374.37,-765.859 1378.8,-756.237 1369.34,-760.992 1374.37,-765.859"/>
</g>
<!-- 112&#45;&gt;99 -->
<g id="edge59" class="edge"><title>112&#45;&gt;99</title>
<path fill="none" stroke="black" d="M1368.19,-863.876C1385.29,-854.596 1406.62,-843.025 1424.95,-833.075"/>
<polygon fill="black" stroke="black" points="1426.84,-836.035 1433.96,-828.19 1423.5,-829.883 1426.84,-836.035"/>
</g>
<!-- 116&#45;&gt;96 -->
<g id="edge60" class="edge"><title>116&#45;&gt;96</title>
<path fill="none" stroke="black" d="M1121.39,-647.876C1102.57,-638.469 1079.05,-626.708 1058.97,-616.667"/>
<polygon fill="black" stroke="black" points="1060.52,-613.531 1050.01,-612.19 1057.39,-619.792 1060.52,-613.531"/>
</g>
<!-- 123 -->
<g id="node66" class="node"><title>123</title>
<ellipse fill="none" stroke="black" cx="1295.63" cy="-594" rx="120.479" ry="18"/>
<text text-anchor="start" x="1211.13" y="-591.3" font-family="Times,serif" font-style="italic" font-size="14.00">(Page 123 &#45; Ask her for a kiss)</text>
</g>
<!-- 116&#45;&gt;123 -->
<g id="edge61" class="edge"><title>116&#45;&gt;123</title>
<path fill="none" stroke="black" d="M1189.88,-647.876C1209.12,-638.259 1233.27,-626.18 1253.64,-615.995"/>
<polygon fill="black" stroke="black" points="1255.32,-619.068 1262.7,-611.465 1252.19,-612.807 1255.32,-619.068"/>
</g>
<!-- 118 -->
<g id="node35" class="node"><title>118</title>
<ellipse fill="#98f5ff" stroke="black" cx="182.634" cy="-162" rx="182.768" ry="18"/>
<text text-anchor="middle" x="182.634" y="-158.3" font-family="Times,serif" font-size="14.00">Page 118 &#45; Listen to Juliet, be discovered by her</text>
</g>
<!-- 163 -->
<g id="node40" class="node"><title>163</title>
<polygon fill="#ff4040" stroke="black" stroke-width="2" points="650.134,-108 475.134,-108 475.134,-72 650.134,-72 650.134,-108"/>
<text text-anchor="middle" x="562.634" y="-86.3" font-family="Times,serif" font-size="14.00">Page 163 &#45; Talk with Romeo</text>
</g>
<!-- 118&#45;&gt;163 -->
<g id="edge63" class="edge"><title>118&#45;&gt;163</title>
<path fill="none" stroke="black" d="M264.62,-145.897C323.317,-135.085 402.607,-120.479 464.645,-109.051"/>
<polygon fill="black" stroke="black" points="465.638,-112.427 474.839,-107.173 464.37,-105.542 465.638,-112.427"/>
</g>
<!-- 150 -->
<g id="node49" class="node"><title>150</title>
<ellipse fill="none" stroke="black" cx="219.634" cy="-90" rx="165.171" ry="18"/>
<text text-anchor="start" x="100.634" y="-87.3" font-family="Times,serif" font-style="italic" font-size="14.00">(Page 150 &#45; Hide in the bushes some more)</text>
</g>
<!-- 118&#45;&gt;150 -->
<g id="edge62" class="edge"><title>118&#45;&gt;150</title>
<path fill="none" stroke="black" d="M191.78,-143.697C196.036,-135.644 201.19,-125.894 205.9,-116.982"/>
<polygon fill="black" stroke="black" points="209.014,-118.581 210.593,-108.104 202.825,-115.31 209.014,-118.581"/>
</g>
<!-- 148 -->
<g id="node39" class="node"><title>148</title>
<polygon fill="#98f5ff" stroke="black" stroke-width="2" points="937.134,-396 632.134,-396 632.134,-360 937.134,-360 937.134,-396"/>
<text text-anchor="middle" x="784.634" y="-374.3" font-family="Times,serif" font-size="14.00">Page 148 &#45; Reveal name, leave the party, come back</text>
</g>
<!-- 120&#45;&gt;148 -->
<g id="edge64" class="edge"><title>120&#45;&gt;148</title>
<path fill="none" stroke="black" d="M894.918,-431.876C875.137,-422.392 850.362,-410.513 829.308,-400.419"/>
<polygon fill="black" stroke="black" points="830.764,-397.236 820.233,-396.068 827.737,-403.548 830.764,-397.236"/>
</g>
<!-- 154 -->
<g id="node52" class="node"><title>154</title>
<ellipse fill="none" stroke="black" cx="1077.63" cy="-378" rx="122.379" ry="18"/>
<text text-anchor="start" x="991.634" y="-375.3" font-family="Times,serif" font-style="italic" font-size="14.00">(Page 154 &#45; Continue as Juliet)</text>
</g>
<!-- 120&#45;&gt;154 -->
<g id="edge65" class="edge"><title>120&#45;&gt;154</title>
<path fill="none" stroke="black" d="M966.594,-431.876C986.955,-422.18 1012.57,-409.982 1034.07,-399.746"/>
<polygon fill="black" stroke="black" points="1035.78,-402.805 1043.31,-395.345 1032.78,-396.485 1035.78,-402.805"/>
</g>
<!-- 142&#45;&gt;163 -->
<g id="edge67" class="edge"><title>142&#45;&gt;163</title>
<path fill="none" stroke="black" d="M766.173,-143.966C727.525,-133.909 678.444,-121.136 638.162,-110.654"/>
<polygon fill="black" stroke="black" points="638.947,-107.242 628.388,-108.111 637.184,-114.016 638.947,-107.242"/>
</g>
<!-- 142&#45;&gt;150 -->
<g id="edge66" class="edge"><title>142&#45;&gt;150</title>
<path fill="none" stroke="black" d="M690.845,-144.897C584.551,-132.739 440.273,-116.236 339.47,-104.707"/>
<polygon fill="black" stroke="black" points="339.574,-101.196 329.241,-103.537 338.779,-108.151 339.574,-101.196"/>
</g>
<!-- 170 -->
<g id="node60" class="node"><title>170</title>
<ellipse fill="none" stroke="black" cx="831.634" cy="-90" rx="127.277" ry="18"/>
<text text-anchor="start" x="741.634" y="-87.3" font-family="Times,serif" font-style="italic" font-size="14.00">(Page 170 &#45; Continue as Romeo)</text>
</g>
<!-- 142&#45;&gt;170 -->
<g id="edge68" class="edge"><title>142&#45;&gt;170</title>
<path fill="none" stroke="black" d="M831.634,-143.697C831.634,-135.983 831.634,-126.712 831.634,-118.112"/>
<polygon fill="black" stroke="black" points="835.134,-118.104 831.634,-108.104 828.134,-118.104 835.134,-118.104"/>
</g>
<!-- 147 -->
<g id="node38" class="node"><title>147</title>
<ellipse fill="#98f5ff" stroke="black" cx="356.634" cy="-234" rx="186.567" ry="18"/>
<text text-anchor="middle" x="356.634" y="-230.3" font-family="Times,serif" font-size="14.00">Page 147 &#45; Hide in bushes, but without fancy talk</text>
</g>
<!-- 147&#45;&gt;118 -->
<g id="edge69" class="edge"><title>147&#45;&gt;118</title>
<path fill="none" stroke="black" d="M315.398,-216.411C290.784,-206.509 259.339,-193.858 233.23,-183.355"/>
<polygon fill="black" stroke="black" points="234.458,-180.076 223.875,-179.591 231.846,-186.571 234.458,-180.076"/>
</g>
<!-- 147&#45;&gt;157 -->
<g id="edge70" class="edge"><title>147&#45;&gt;157</title>
<path fill="none" stroke="black" d="M397.395,-216.411C421.903,-206.437 453.263,-193.674 479.182,-183.126"/>
<polygon fill="black" stroke="black" points="480.519,-186.36 488.462,-179.349 477.88,-179.877 480.519,-186.36"/>
</g>
<!-- 167 -->
<g id="node41" class="node"><title>167</title>
<polygon fill="#98f5ff" stroke="black" stroke-width="2" points="617.634,-324 417.634,-324 417.634,-288 617.634,-288 617.634,-324"/>
<text text-anchor="middle" x="517.634" y="-302.3" font-family="Times,serif" font-size="14.00">Page 167 &#45; Find Juliet on balcony</text>
</g>
<!-- 148&#45;&gt;167 -->
<g id="edge73" class="edge"><title>148&#45;&gt;167</title>
<path fill="none" stroke="black" d="M719.66,-359.966C681.3,-349.909 632.583,-337.136 592.6,-326.654"/>
<polygon fill="black" stroke="black" points="593.46,-323.261 582.899,-324.111 591.685,-330.032 593.46,-323.261"/>
</g>
<!-- 155 -->
<g id="node53" class="node"><title>155</title>
<ellipse fill="none" stroke="black" cx="784.634" cy="-306" rx="148.674" ry="18"/>
<text text-anchor="start" x="678.134" y="-303.3" font-family="Times,serif" font-style="italic" font-size="14.00">(Page 155 &#45; Examine wooden balcony)</text>
</g>
<!-- 148&#45;&gt;155 -->
<g id="edge72" class="edge"><title>148&#45;&gt;155</title>
<path fill="none" stroke="black" d="M784.634,-359.697C784.634,-351.983 784.634,-342.712 784.634,-334.112"/>
<polygon fill="black" stroke="black" points="788.134,-334.104 784.634,-324.104 781.134,-334.104 788.134,-334.104"/>
</g>
<!-- 119 -->
<g id="node64" class="node"><title>119</title>
<ellipse fill="none" stroke="black" cx="1091.63" cy="-306" rx="139.976" ry="18"/>
<text text-anchor="start" x="992.134" y="-303.3" font-family="Times,serif" font-style="italic" font-size="14.00">(Page 119 &#45; Examine stone balcony)</text>
</g>
<!-- 148&#45;&gt;119 -->
<g id="edge71" class="edge"><title>148&#45;&gt;119</title>
<path fill="none" stroke="black" d="M859.342,-359.966C906.981,-349.103 968.51,-335.074 1016.27,-324.183"/>
<polygon fill="black" stroke="black" points="1017.28,-327.544 1026.25,-321.909 1015.72,-320.719 1017.28,-327.544"/>
</g>
<!-- 151 -->
<g id="node50" class="node"><title>151</title>
<ellipse fill="none" stroke="black" cx="399.634" cy="-18" rx="186.567" ry="18"/>
<text text-anchor="start" x="264.134" y="-15.3" font-family="Times,serif" font-style="italic" font-size="14.00">(Page 151 &#45; Take your time with the relationship)</text>
</g>
<!-- 163&#45;&gt;151 -->
<g id="edge75" class="edge"><title>163&#45;&gt;151</title>
<path fill="none" stroke="black" d="M522.76,-71.8761C500.128,-62.1569 471.642,-49.9238 447.772,-39.6726"/>
<polygon fill="black" stroke="black" points="449.104,-36.4357 438.534,-35.7056 446.341,-42.8676 449.104,-36.4357"/>
</g>
<!-- 122 -->
<g id="node65" class="node"><title>122</title>
<ellipse fill="none" stroke="black" cx="725.634" cy="-18" rx="121.578" ry="18"/>
<text text-anchor="start" x="640.134" y="-15.3" font-family="Times,serif" font-style="italic" font-size="14.00">(Page 122 &#45; Confess your love)</text>
</g>
<!-- 163&#45;&gt;122 -->
<g id="edge74" class="edge"><title>163&#45;&gt;122</title>
<path fill="none" stroke="black" d="M602.508,-71.8761C625.473,-62.014 654.465,-49.5635 678.546,-39.2217"/>
<polygon fill="black" stroke="black" points="680.044,-42.3878 687.851,-35.2257 677.281,-35.9558 680.044,-42.3878"/>
</g>
<!-- 167&#45;&gt;110 -->
<g id="edge76" class="edge"><title>167&#45;&gt;110</title>
<path fill="none" stroke="black" d="M557.263,-287.876C579.41,-278.307 607.196,-266.3 630.692,-256.148"/>
<polygon fill="black" stroke="black" points="632.341,-259.248 640.133,-252.068 629.565,-252.822 632.341,-259.248"/>
</g>
<!-- 167&#45;&gt;147 -->
<g id="edge77" class="edge"><title>167&#45;&gt;147</title>
<path fill="none" stroke="black" d="M478.249,-287.876C455.994,-278.2 428.007,-266.032 404.494,-255.809"/>
<polygon fill="black" stroke="black" points="405.623,-252.483 395.057,-251.706 402.832,-258.903 405.623,-252.483"/>
</g>
<!-- 418&#45;&gt;10 -->
<g id="edge78" class="edge"><title>418&#45;&gt;10</title>
<path fill="none" stroke="black" d="M1684.91,-1368.05C1672.24,-1359.01 1656.48,-1347.74 1642.73,-1337.93"/>
<polygon fill="black" stroke="black" points="1644.65,-1335 1634.48,-1332.03 1640.58,-1340.69 1644.65,-1335"/>
</g>
<!-- 475&#45;&gt;36 -->
<g id="edge79" class="edge"><title>475&#45;&gt;36</title>
<path fill="none" stroke="black" d="M1779.07,-2235.92C1729.91,-2225.3 1659.91,-2210.17 1604.41,-2198.18"/>
<polygon fill="black" stroke="black" points="1605.1,-2194.75 1594.58,-2196.06 1603.62,-2201.59 1605.1,-2194.75"/>
</g>
<!-- 476 -->
<g id="node44" class="node"><title>476</title>
<ellipse fill="#838b8b" stroke="black" cx="1916.63" cy="-2466" rx="193.866" ry="18"/>
<text text-anchor="middle" x="1916.63" y="-2462.3" font-family="Times,serif" font-size="14.00" fill="white">Page 476 &#45; Hidden page tsk&#45;tsking you for cheating</text>
</g>
</g>
</svg>
