<?xml version="1.0" encoding="UTF-8" standalone="no"?>
<!DOCTYPE svg PUBLIC "-//W3C//DTD SVG 1.1//EN"
 "http://www.w3.org/Graphics/SVG/1.1/DTD/svg11.dtd">
<!-- Generated by graphviz version 2.38.0 (20140413.2041)
 -->
<!-- Title: yorick Pages: 1 -->
<svg width="1952pt" height="819pt"
 viewBox="0.00 0.00 1952.23 818.85" xmlns="http://www.w3.org/2000/svg" xmlns:xlink="http://www.w3.org/1999/xlink">
<g id="graph0" class="graph" transform="scale(1 1) rotate(0) translate(4 814.853)">
<title>yorick</title>
<polygon fill="white" stroke="none" points="-4,4 -4,-814.853 1948.23,-814.853 1948.23,4 -4,4"/>
<text text-anchor="middle" x="972.113" y="-726.853" font-family="Times,serif" font-size="100.00">Poor Yorick</text>
<g id="clust1" class="cluster"><title>cluster_charkey</title>
<polygon fill="#e5e5e5" stroke="#e5e5e5" points="8,-496 8,-684.853 259,-684.853 259,-496 8,-496"/>
<text text-anchor="middle" x="133.5" y="-648.853" font-family="Times,serif" font-size="40.00">Character Key</text>
</g>
<!-- char_0 -->
<g id="node1" class="node"><title>char_0</title>
<ellipse fill="cornflowerblue" stroke="black" cx="132" cy="-603.64" rx="50.41" ry="21.4286"/>
<text text-anchor="middle" x="132" y="-598.64" font-family="Times,serif" font-size="20.00">Yorick</text>
</g>
<!-- ending -->
<g id="node2" class="node"><title>ending</title>
<ellipse fill="#838b8b" stroke="black" cx="132" cy="-525.213" rx="82.9636" ry="21.4286"/>
<text text-anchor="middle" x="132" y="-520.213" font-family="Times,serif" font-size="20.00" fill="white">Ending Page</text>
</g>
<!-- char_0&#45;&gt;ending -->
<!-- 1 -->
<g id="node3" class="node"><title>1</title>
<ellipse fill="cornflowerblue" stroke="black" cx="629" cy="-603.64" rx="107.482" ry="18"/>
<text text-anchor="middle" x="629" y="-599.94" font-family="Times,serif" font-size="14.00">Page 1 &#45; Book Introduction</text>
</g>
<!-- 4 -->
<g id="node6" class="node"><title>4</title>
<ellipse fill="#838b8b" stroke="black" cx="369" cy="-525.213" rx="102.082" ry="18"/>
<text text-anchor="middle" x="369" y="-521.513" font-family="Times,serif" font-size="14.00" fill="white">Page 4 &#45; Die of starvation</text>
</g>
<!-- 1&#45;&gt;4 -->
<g id="edge2" class="edge"><title>1&#45;&gt;4</title>
<path fill="none" stroke="black" d="M578.252,-587.722C535.434,-575.136 474.066,-557.097 428.855,-543.807"/>
<polygon fill="black" stroke="black" points="429.759,-540.425 419.178,-540.963 427.785,-547.141 429.759,-540.425"/>
</g>
<!-- 7 -->
<g id="node9" class="node"><title>7</title>
<ellipse fill="cornflowerblue" stroke="black" cx="629" cy="-525.213" rx="140.275" ry="18"/>
<text text-anchor="middle" x="629" y="-521.513" font-family="Times,serif" font-size="14.00">Page 7 &#45; Arrive at castle for audition</text>
</g>
<!-- 1&#45;&gt;7 -->
<g id="edge3" class="edge"><title>1&#45;&gt;7</title>
<path fill="none" stroke="black" d="M629,-585.297C629,-575.85 629,-563.949 629,-553.307"/>
<polygon fill="black" stroke="black" points="632.5,-553.224 629,-543.224 625.5,-553.224 632.5,-553.224"/>
</g>
<!-- 17 -->
<g id="node19" class="node"><title>17</title>
<ellipse fill="#838b8b" stroke="black" cx="950" cy="-525.213" rx="162.471" ry="18"/>
<text text-anchor="middle" x="950" y="-521.513" font-family="Times,serif" font-size="14.00" fill="white">Page 17 &#45; Die, through force of will alone!</text>
</g>
<!-- 1&#45;&gt;17 -->
<g id="edge4" class="edge"><title>1&#45;&gt;17</title>
<path fill="none" stroke="black" d="M688.25,-588.533C740.8,-576.021 817.826,-557.682 874.724,-544.136"/>
<polygon fill="black" stroke="black" points="875.828,-547.471 884.745,-541.75 874.206,-540.661 875.828,-547.471"/>
</g>
<!-- 2 -->
<g id="node4" class="node"><title>2</title>
<ellipse fill="#838b8b" stroke="black" cx="336" cy="-450" rx="139.175" ry="18"/>
<text text-anchor="middle" x="336" y="-446.3" font-family="Times,serif" font-size="14.00" fill="white">Page 2 &#45; Get killed by another jester</text>
</g>
<!-- 3 -->
<g id="node5" class="node"><title>3</title>
<ellipse fill="#838b8b" stroke="black" cx="619" cy="-306" rx="157.872" ry="18"/>
<text text-anchor="middle" x="619" y="-302.3" font-family="Times,serif" font-size="14.00" fill="white">Page 3 &#45; Get killed by tree trunk on ropes</text>
</g>
<!-- 5 -->
<g id="node7" class="node"><title>5</title>
<ellipse fill="cornflowerblue" stroke="black" cx="923" cy="-306" rx="128.077" ry="18"/>
<text text-anchor="middle" x="923" y="-302.3" font-family="Times,serif" font-size="14.00">Page 5 &#45; You are hired for a day!</text>
</g>
<!-- 8 -->
<g id="node10" class="node"><title>8</title>
<ellipse fill="#838b8b" stroke="black" cx="537" cy="-234" rx="203.364" ry="18"/>
<text text-anchor="middle" x="537" y="-230.3" font-family="Times,serif" font-size="14.00" fill="white">Page 8 &#45; Spend the rest of your life making fart noises</text>
</g>
<!-- 5&#45;&gt;8 -->
<g id="edge5" class="edge"><title>5&#45;&gt;8</title>
<path fill="none" stroke="black" d="M847.659,-291.337C785.992,-280.154 698.409,-264.271 631.949,-252.219"/>
<polygon fill="black" stroke="black" points="632.352,-248.735 621.887,-250.394 631.102,-255.622 632.352,-248.735"/>
</g>
<!-- 13 -->
<g id="node15" class="node"><title>13</title>
<ellipse fill="cornflowerblue" stroke="black" cx="923" cy="-234" rx="164.371" ry="18"/>
<text text-anchor="middle" x="923" y="-230.3" font-family="Times,serif" font-size="14.00">Page 13 &#45; Kid Hamlet asks for horsey rides</text>
</g>
<!-- 5&#45;&gt;13 -->
<g id="edge6" class="edge"><title>5&#45;&gt;13</title>
<path fill="none" stroke="black" d="M923,-287.697C923,-279.983 923,-270.712 923,-262.112"/>
<polygon fill="black" stroke="black" points="926.5,-262.104 923,-252.104 919.5,-262.104 926.5,-262.104"/>
</g>
<!-- 21 -->
<g id="node23" class="node"><title>21</title>
<ellipse fill="#838b8b" stroke="black" cx="1228" cy="-234" rx="122.678" ry="18"/>
<text text-anchor="middle" x="1228" y="-230.3" font-family="Times,serif" font-size="14.00" fill="white">Page 21 &#45; Get your head cut off</text>
</g>
<!-- 5&#45;&gt;21 -->
<g id="edge7" class="edge"><title>5&#45;&gt;21</title>
<path fill="none" stroke="black" d="M986.938,-290.326C1035.98,-279.069 1103.73,-263.52 1154.92,-251.772"/>
<polygon fill="black" stroke="black" points="1155.97,-255.123 1164.93,-249.475 1154.4,-248.301 1155.97,-255.123"/>
</g>
<!-- 6 -->
<g id="node8" class="node"><title>6</title>
<ellipse fill="#838b8b" stroke="black" cx="612" cy="-378" rx="178.168" ry="18"/>
<text text-anchor="middle" x="612" y="-374.3" font-family="Times,serif" font-size="14.00" fill="white">Page 6 &#45; Get killed by other jester, accidentally</text>
</g>
<!-- 7&#45;&gt;2 -->
<g id="edge8" class="edge"><title>7&#45;&gt;2</title>
<path fill="none" stroke="black" d="M567.934,-508.954C521.02,-497.232 456.138,-481.019 406.924,-468.722"/>
<polygon fill="black" stroke="black" points="407.537,-465.268 396.987,-466.239 405.84,-472.059 407.537,-465.268"/>
</g>
<!-- 16 -->
<g id="node18" class="node"><title>16</title>
<ellipse fill="#838b8b" stroke="black" cx="629" cy="-450" rx="135.676" ry="18"/>
<text text-anchor="middle" x="629" y="-446.3" font-family="Times,serif" font-size="14.00" fill="white">Page 16 &#45; The other jesters kill you</text>
</g>
<!-- 7&#45;&gt;16 -->
<g id="edge9" class="edge"><title>7&#45;&gt;16</title>
<path fill="none" stroke="black" d="M629,-506.863C629,-498.383 629,-487.977 629,-478.453"/>
<polygon fill="black" stroke="black" points="632.5,-478.226 629,-468.226 625.5,-478.226 632.5,-478.226"/>
</g>
<!-- 19 -->
<g id="node21" class="node"><title>19</title>
<ellipse fill="cornflowerblue" stroke="black" cx="923" cy="-450" rx="139.976" ry="18"/>
<text text-anchor="middle" x="923" y="-446.3" font-family="Times,serif" font-size="14.00">Page 19 &#45; Talk with the other jesters</text>
</g>
<!-- 7&#45;&gt;19 -->
<g id="edge10" class="edge"><title>7&#45;&gt;19</title>
<path fill="none" stroke="black" d="M690.274,-508.954C737.349,-497.232 802.452,-481.019 851.834,-468.722"/>
<polygon fill="black" stroke="black" points="852.947,-472.052 861.805,-466.239 851.255,-465.259 852.947,-472.052"/>
</g>
<!-- 9 -->
<g id="node11" class="node"><title>9</title>
<ellipse fill="#838b8b" stroke="black" cx="698" cy="-90" rx="180.868" ry="18"/>
<text text-anchor="middle" x="698" y="-86.3" font-family="Times,serif" font-size="14.00" fill="white">Page 9 &#45; Kid Hamlet throws a fit, you are killed</text>
</g>
<!-- 10 -->
<g id="node12" class="node"><title>10</title>
<ellipse fill="cornflowerblue" stroke="black" cx="923" cy="-378" rx="115.08" ry="18"/>
<text text-anchor="middle" x="923" y="-374.3" font-family="Times,serif" font-size="14.00">Page 10 &#45; Begin the audition!</text>
</g>
<!-- 10&#45;&gt;3 -->
<g id="edge11" class="edge"><title>10&#45;&gt;3</title>
<path fill="none" stroke="black" d="M861.115,-362.75C813.346,-351.751 746.995,-336.472 695.83,-324.691"/>
<polygon fill="black" stroke="black" points="696.34,-321.217 685.809,-322.384 694.769,-328.038 696.34,-321.217"/>
</g>
<!-- 10&#45;&gt;5 -->
<g id="edge12" class="edge"><title>10&#45;&gt;5</title>
<path fill="none" stroke="black" d="M923,-359.697C923,-351.983 923,-342.712 923,-334.112"/>
<polygon fill="black" stroke="black" points="926.5,-334.104 923,-324.104 919.5,-334.104 926.5,-334.104"/>
</g>
<!-- 20 -->
<g id="node22" class="node"><title>20</title>
<ellipse fill="#838b8b" stroke="black" cx="1215" cy="-306" rx="145.674" ry="18"/>
<text text-anchor="middle" x="1215" y="-302.3" font-family="Times,serif" font-size="14.00" fill="white">Page 20 &#45; King Carl puts you to death</text>
</g>
<!-- 10&#45;&gt;20 -->
<g id="edge13" class="edge"><title>10&#45;&gt;20</title>
<path fill="none" stroke="black" d="M983.149,-362.581C1029.07,-351.573 1092.56,-336.352 1141.5,-324.621"/>
<polygon fill="black" stroke="black" points="1142.48,-327.983 1151.39,-322.249 1140.85,-321.176 1142.48,-327.983"/>
</g>
<!-- 11 -->
<g id="node13" class="node"><title>11</title>
<ellipse fill="#838b8b" stroke="black" cx="1255" cy="-18" rx="144.075" ry="18"/>
<text text-anchor="middle" x="1255" y="-14.3" font-family="Times,serif" font-size="14.00" fill="white">Page 11 &#45; Perhaps a sequel is in order</text>
</g>
<!-- 12 -->
<g id="node14" class="node"><title>12</title>
<ellipse fill="#838b8b" stroke="black" cx="1080" cy="-90" rx="183.068" ry="18"/>
<text text-anchor="middle" x="1080" y="-86.3" font-family="Times,serif" font-size="14.00" fill="white">Page 12 &#45; Li&#39;l Hamster effectively has you killed</text>
</g>
<!-- 18 -->
<g id="node20" class="node"><title>18</title>
<ellipse fill="#838b8b" stroke="black" cx="766" cy="-162" rx="141.075" ry="18"/>
<text text-anchor="middle" x="766" y="-158.3" font-family="Times,serif" font-size="14.00" fill="white">Page 18 &#45; Get fired, die of starvation</text>
</g>
<!-- 13&#45;&gt;18 -->
<g id="edge14" class="edge"><title>13&#45;&gt;18</title>
<path fill="none" stroke="black" d="M885.793,-216.411C863.797,-206.604 835.753,-194.1 812.33,-183.657"/>
<polygon fill="black" stroke="black" points="813.498,-180.346 802.94,-179.47 810.648,-186.739 813.498,-180.346"/>
</g>
<!-- 22 -->
<g id="node24" class="node"><title>22</title>
<ellipse fill="cornflowerblue" stroke="black" cx="1080" cy="-162" rx="155.173" ry="18"/>
<text text-anchor="middle" x="1080" y="-158.3" font-family="Times,serif" font-size="14.00">Page 22 &#45; Kid Hamlet wants a nickname</text>
</g>
<!-- 13&#45;&gt;22 -->
<g id="edge15" class="edge"><title>13&#45;&gt;22</title>
<path fill="none" stroke="black" d="M960.207,-216.411C982.124,-206.639 1010.04,-194.191 1033.42,-183.77"/>
<polygon fill="black" stroke="black" points="1035.08,-186.86 1042.79,-179.591 1032.23,-180.467 1035.08,-186.86"/>
</g>
<!-- 14 -->
<g id="node16" class="node"><title>14</title>
<ellipse fill="#838b8b" stroke="black" cx="1198" cy="-378" rx="141.875" ry="18"/>
<text text-anchor="middle" x="1198" y="-374.3" font-family="Times,serif" font-size="14.00" fill="white">Page 14 &#45; Get killed by king&#39;s guards</text>
</g>
<!-- 15 -->
<g id="node17" class="node"><title>15</title>
<ellipse fill="#838b8b" stroke="black" cx="1468" cy="-90" rx="187.367" ry="18"/>
<text text-anchor="middle" x="1468" y="-86.3" font-family="Times,serif" font-size="14.00" fill="white">Page 15 &#45; Live a fulfilling life with your new job!</text>
</g>
<!-- 15&#45;&gt;11 -->
<g id="edge16" class="edge"><title>15&#45;&gt;11</title>
<path fill="none" stroke="black" d="M1418.06,-72.5881C1386.86,-62.3341 1346.53,-49.0814 1313.79,-38.321"/>
<polygon fill="black" stroke="black" points="1314.48,-34.8648 1303.89,-35.0676 1312.3,-41.5149 1314.48,-34.8648"/>
</g>
<!-- 23 -->
<g id="node25" class="node"><title>23</title>
<ellipse fill="#838b8b" stroke="black" cx="1681" cy="-18" rx="263.453" ry="18"/>
<text text-anchor="middle" x="1681" y="-14.3" font-family="Times,serif" font-size="14.00" fill="white">Page 23 &#45; Tear a hole in reality and destroy a big chunk of the universe</text>
</g>
<!-- 15&#45;&gt;23 -->
<g id="edge17" class="edge"><title>15&#45;&gt;23</title>
<path fill="none" stroke="black" d="M1517.94,-72.5881C1548.58,-62.5172 1588.03,-49.5537 1620.45,-38.8998"/>
<polygon fill="black" stroke="black" points="1621.86,-42.1205 1630.27,-35.6733 1619.67,-35.4704 1621.86,-42.1205"/>
</g>
<!-- 19&#45;&gt;6 -->
<g id="edge18" class="edge"><title>19&#45;&gt;6</title>
<path fill="none" stroke="black" d="M856.664,-434.069C808.331,-423.19 742.639,-408.404 691.494,-396.893"/>
<polygon fill="black" stroke="black" points="691.993,-393.417 681.469,-394.636 690.456,-400.247 691.993,-393.417"/>
</g>
<!-- 19&#45;&gt;10 -->
<g id="edge19" class="edge"><title>19&#45;&gt;10</title>
<path fill="none" stroke="black" d="M923,-431.697C923,-423.983 923,-414.712 923,-406.112"/>
<polygon fill="black" stroke="black" points="926.5,-406.104 923,-396.104 919.5,-406.104 926.5,-406.104"/>
</g>
<!-- 19&#45;&gt;14 -->
<g id="edge20" class="edge"><title>19&#45;&gt;14</title>
<path fill="none" stroke="black" d="M983.01,-433.725C1025.62,-422.879 1082.97,-408.281 1127.72,-396.89"/>
<polygon fill="black" stroke="black" points="1128.82,-400.222 1137.64,-394.363 1127.09,-393.439 1128.82,-400.222"/>
</g>
<!-- 22&#45;&gt;9 -->
<g id="edge21" class="edge"><title>22&#45;&gt;9</title>
<path fill="none" stroke="black" d="M1000.85,-146.496C939.655,-135.282 854.81,-119.735 790.489,-107.948"/>
<polygon fill="black" stroke="black" points="790.815,-104.45 780.348,-106.09 789.554,-111.335 790.815,-104.45"/>
</g>
<!-- 22&#45;&gt;12 -->
<g id="edge22" class="edge"><title>22&#45;&gt;12</title>
<path fill="none" stroke="black" d="M1080,-143.697C1080,-135.983 1080,-126.712 1080,-118.112"/>
<polygon fill="black" stroke="black" points="1083.5,-118.104 1080,-108.104 1076.5,-118.104 1083.5,-118.104"/>
</g>
<!-- 22&#45;&gt;15 -->
<g id="edge23" class="edge"><title>22&#45;&gt;15</title>
<path fill="none" stroke="black" d="M1160.39,-146.496C1222.57,-135.278 1308.79,-119.724 1374.13,-107.935"/>
<polygon fill="black" stroke="black" points="1374.8,-111.371 1384.02,-106.151 1373.56,-104.482 1374.8,-111.371"/>
</g>
</g>
</svg>
